<mxfile host="app.diagrams.net" modified="2023-03-27T09:46:50.508Z" agent="Mozilla/5.0 (Windows NT 10.0; Win64; x64) AppleWebKit/537.36 (KHTML, like Gecko) Chrome/111.0.0.0 Safari/537.36" etag="97AzPudxDSWaaqEhCKA1" version="21.1.1" type="device">
  <diagram name="Pagina-1" id="WqBTcTdmHT2CxgL9HPI1">
    <mxGraphModel dx="5227" dy="2260" grid="1" gridSize="10" guides="1" tooltips="1" connect="1" arrows="1" fold="1" page="1" pageScale="1" pageWidth="827" pageHeight="1169" math="0" shadow="0">
      <root>
        <mxCell id="0" />
        <mxCell id="1" parent="0" />
        <mxCell id="B_iQfIN86OkQtGYe0Bar-1" value="Camera" style="rounded=0;whiteSpace=wrap;html=1;" parent="1" vertex="1">
          <mxGeometry x="257" y="455" width="120" height="60" as="geometry" />
        </mxCell>
        <mxCell id="B_iQfIN86OkQtGYe0Bar-8" value="&amp;nbsp;Utente" style="rounded=0;whiteSpace=wrap;html=1;" parent="1" vertex="1">
          <mxGeometry x="-375" y="305" width="120" height="60" as="geometry" />
        </mxCell>
        <mxCell id="B_iQfIN86OkQtGYe0Bar-9" value="Dipendente" style="rounded=0;whiteSpace=wrap;html=1;" parent="1" vertex="1">
          <mxGeometry x="722" y="455" width="120" height="60" as="geometry" />
        </mxCell>
        <mxCell id="B_iQfIN86OkQtGYe0Bar-14" value="" style="shape=flexArrow;endArrow=classic;html=1;rounded=0;" parent="1" edge="1">
          <mxGeometry width="50" height="50" relative="1" as="geometry">
            <mxPoint x="781.41" y="575" as="sourcePoint" />
            <mxPoint x="781.41" y="515" as="targetPoint" />
          </mxGeometry>
        </mxCell>
        <mxCell id="B_iQfIN86OkQtGYe0Bar-15" value="" style="endArrow=none;html=1;rounded=0;" parent="1" edge="1">
          <mxGeometry width="50" height="50" relative="1" as="geometry">
            <mxPoint x="881.62" y="575" as="sourcePoint" />
            <mxPoint x="681.62" y="575" as="targetPoint" />
          </mxGeometry>
        </mxCell>
        <mxCell id="B_iQfIN86OkQtGYe0Bar-16" value="" style="endArrow=none;html=1;rounded=0;" parent="1" edge="1">
          <mxGeometry width="50" height="50" relative="1" as="geometry">
            <mxPoint x="681.62" y="655" as="sourcePoint" />
            <mxPoint x="681.62" y="575" as="targetPoint" />
          </mxGeometry>
        </mxCell>
        <mxCell id="B_iQfIN86OkQtGYe0Bar-17" value="" style="endArrow=none;html=1;rounded=0;" parent="1" edge="1">
          <mxGeometry width="50" height="50" relative="1" as="geometry">
            <mxPoint x="881.62" y="655" as="sourcePoint" />
            <mxPoint x="881.62" y="575" as="targetPoint" />
          </mxGeometry>
        </mxCell>
        <mxCell id="B_iQfIN86OkQtGYe0Bar-18" value="Impiegati" style="rounded=0;whiteSpace=wrap;html=1;" parent="1" vertex="1">
          <mxGeometry x="625" y="655" width="120" height="60" as="geometry" />
        </mxCell>
        <mxCell id="B_iQfIN86OkQtGYe0Bar-19" value="Direttore" style="rounded=0;whiteSpace=wrap;html=1;" parent="1" vertex="1">
          <mxGeometry x="825" y="655" width="120" height="60" as="geometry" />
        </mxCell>
        <mxCell id="B_iQfIN86OkQtGYe0Bar-26" value="Prenotazione" style="rounded=0;whiteSpace=wrap;html=1;" parent="1" vertex="1">
          <mxGeometry x="-375" y="675" width="120" height="60" as="geometry" />
        </mxCell>
        <mxCell id="B_iQfIN86OkQtGYe0Bar-27" value="Comfort" style="rounded=0;whiteSpace=wrap;html=1;" parent="1" vertex="1">
          <mxGeometry x="25" y="305" width="120" height="60" as="geometry" />
        </mxCell>
        <mxCell id="B_iQfIN86OkQtGYe0Bar-28" value="Possiede" style="rhombus;whiteSpace=wrap;html=1;" parent="1" vertex="1">
          <mxGeometry x="277" y="295" width="80" height="80" as="geometry" />
        </mxCell>
        <mxCell id="B_iQfIN86OkQtGYe0Bar-29" value="" style="endArrow=none;html=1;rounded=0;entryX=0.5;entryY=1;entryDx=0;entryDy=0;exitX=0.5;exitY=0;exitDx=0;exitDy=0;" parent="1" source="B_iQfIN86OkQtGYe0Bar-1" target="B_iQfIN86OkQtGYe0Bar-28" edge="1">
          <mxGeometry width="50" height="50" relative="1" as="geometry">
            <mxPoint x="377" y="485" as="sourcePoint" />
            <mxPoint x="427" y="435" as="targetPoint" />
          </mxGeometry>
        </mxCell>
        <mxCell id="B_iQfIN86OkQtGYe0Bar-30" value="" style="endArrow=none;html=1;rounded=0;exitX=0;exitY=0.5;exitDx=0;exitDy=0;" parent="1" source="B_iQfIN86OkQtGYe0Bar-28" edge="1">
          <mxGeometry width="50" height="50" relative="1" as="geometry">
            <mxPoint x="275" y="335" as="sourcePoint" />
            <mxPoint x="145" y="335" as="targetPoint" />
          </mxGeometry>
        </mxCell>
        <mxCell id="B_iQfIN86OkQtGYe0Bar-32" value="(1,N)" style="text;html=1;align=center;verticalAlign=middle;resizable=0;points=[];autosize=1;strokeColor=none;fillColor=none;" parent="1" vertex="1">
          <mxGeometry x="307" y="430" width="50" height="30" as="geometry" />
        </mxCell>
        <mxCell id="B_iQfIN86OkQtGYe0Bar-33" value="Lavora" style="rhombus;whiteSpace=wrap;html=1;" parent="1" vertex="1">
          <mxGeometry x="515" y="445" width="80" height="80" as="geometry" />
        </mxCell>
        <mxCell id="B_iQfIN86OkQtGYe0Bar-35" value="" style="endArrow=none;html=1;rounded=0;entryX=0;entryY=0.5;entryDx=0;entryDy=0;exitX=1;exitY=0.5;exitDx=0;exitDy=0;" parent="1" source="B_iQfIN86OkQtGYe0Bar-1" target="B_iQfIN86OkQtGYe0Bar-33" edge="1">
          <mxGeometry width="50" height="50" relative="1" as="geometry">
            <mxPoint x="375" y="485" as="sourcePoint" />
            <mxPoint x="475" y="535" as="targetPoint" />
          </mxGeometry>
        </mxCell>
        <mxCell id="B_iQfIN86OkQtGYe0Bar-36" value="" style="endArrow=none;html=1;rounded=0;entryX=1;entryY=0.5;entryDx=0;entryDy=0;exitX=0;exitY=0.5;exitDx=0;exitDy=0;" parent="1" source="B_iQfIN86OkQtGYe0Bar-9" target="B_iQfIN86OkQtGYe0Bar-33" edge="1">
          <mxGeometry width="50" height="50" relative="1" as="geometry">
            <mxPoint x="525" y="625" as="sourcePoint" />
            <mxPoint x="575" y="575" as="targetPoint" />
          </mxGeometry>
        </mxCell>
        <mxCell id="B_iQfIN86OkQtGYe0Bar-37" value="(0,N)" style="text;html=1;align=center;verticalAlign=middle;resizable=0;points=[];autosize=1;strokeColor=none;fillColor=none;" parent="1" vertex="1">
          <mxGeometry x="675" y="460" width="50" height="30" as="geometry" />
        </mxCell>
        <mxCell id="B_iQfIN86OkQtGYe0Bar-38" value="(1,N)" style="text;html=1;align=center;verticalAlign=middle;resizable=0;points=[];autosize=1;strokeColor=none;fillColor=none;" parent="1" vertex="1">
          <mxGeometry x="369" y="460" width="50" height="30" as="geometry" />
        </mxCell>
        <mxCell id="B_iQfIN86OkQtGYe0Bar-39" value="Soggiorna" style="rhombus;whiteSpace=wrap;html=1;" parent="1" vertex="1">
          <mxGeometry x="-165" y="445" width="80" height="80" as="geometry" />
        </mxCell>
        <mxCell id="B_iQfIN86OkQtGYe0Bar-40" value="Effettua" style="rhombus;whiteSpace=wrap;html=1;" parent="1" vertex="1">
          <mxGeometry x="-355" y="495" width="80" height="80" as="geometry" />
        </mxCell>
        <mxCell id="B_iQfIN86OkQtGYe0Bar-41" value="Richiede" style="rhombus;whiteSpace=wrap;html=1;" parent="1" vertex="1">
          <mxGeometry x="-165" y="295" width="80" height="80" as="geometry" />
        </mxCell>
        <mxCell id="B_iQfIN86OkQtGYe0Bar-42" value="" style="endArrow=none;html=1;rounded=0;exitX=0;exitY=0.5;exitDx=0;exitDy=0;entryX=1;entryY=0.5;entryDx=0;entryDy=0;" parent="1" source="B_iQfIN86OkQtGYe0Bar-41" target="B_iQfIN86OkQtGYe0Bar-8" edge="1">
          <mxGeometry width="50" height="50" relative="1" as="geometry">
            <mxPoint x="-305" y="395" as="sourcePoint" />
            <mxPoint x="-255" y="345" as="targetPoint" />
          </mxGeometry>
        </mxCell>
        <mxCell id="B_iQfIN86OkQtGYe0Bar-43" value="" style="endArrow=none;html=1;rounded=0;exitX=1;exitY=0.5;exitDx=0;exitDy=0;" parent="1" source="B_iQfIN86OkQtGYe0Bar-41" edge="1">
          <mxGeometry width="50" height="50" relative="1" as="geometry">
            <mxPoint x="-25" y="385" as="sourcePoint" />
            <mxPoint x="25" y="335" as="targetPoint" />
          </mxGeometry>
        </mxCell>
        <mxCell id="B_iQfIN86OkQtGYe0Bar-44" value="(0,N)" style="text;html=1;align=center;verticalAlign=middle;resizable=0;points=[];autosize=1;strokeColor=none;fillColor=none;" parent="1" vertex="1">
          <mxGeometry x="-260" y="310" width="50" height="30" as="geometry" />
        </mxCell>
        <mxCell id="B_iQfIN86OkQtGYe0Bar-45" value="(0,1)" style="text;html=1;align=center;verticalAlign=middle;resizable=0;points=[];autosize=1;strokeColor=none;fillColor=none;" parent="1" vertex="1">
          <mxGeometry x="-15" y="310" width="50" height="30" as="geometry" />
        </mxCell>
        <mxCell id="B_iQfIN86OkQtGYe0Bar-46" value="" style="endArrow=none;html=1;rounded=0;" parent="1" source="B_iQfIN86OkQtGYe0Bar-40" edge="1">
          <mxGeometry width="50" height="50" relative="1" as="geometry">
            <mxPoint x="-365" y="415" as="sourcePoint" />
            <mxPoint x="-315" y="365" as="targetPoint" />
          </mxGeometry>
        </mxCell>
        <mxCell id="B_iQfIN86OkQtGYe0Bar-47" value="" style="endArrow=none;html=1;rounded=0;entryX=0.5;entryY=1;entryDx=0;entryDy=0;" parent="1" target="B_iQfIN86OkQtGYe0Bar-40" edge="1">
          <mxGeometry width="50" height="50" relative="1" as="geometry">
            <mxPoint x="-315" y="675" as="sourcePoint" />
            <mxPoint x="-205" y="565" as="targetPoint" />
          </mxGeometry>
        </mxCell>
        <mxCell id="B_iQfIN86OkQtGYe0Bar-48" value="(1,N)" style="text;html=1;align=center;verticalAlign=middle;resizable=0;points=[];autosize=1;strokeColor=none;fillColor=none;" parent="1" vertex="1">
          <mxGeometry x="-360" y="360" width="50" height="30" as="geometry" />
        </mxCell>
        <mxCell id="B_iQfIN86OkQtGYe0Bar-55" value="" style="endArrow=none;html=1;rounded=0;entryX=0;entryY=0.5;entryDx=0;entryDy=0;exitX=1;exitY=0.5;exitDx=0;exitDy=0;" parent="1" source="B_iQfIN86OkQtGYe0Bar-39" target="B_iQfIN86OkQtGYe0Bar-1" edge="1">
          <mxGeometry width="50" height="50" relative="1" as="geometry">
            <mxPoint x="155" y="535" as="sourcePoint" />
            <mxPoint x="205" y="485" as="targetPoint" />
          </mxGeometry>
        </mxCell>
        <mxCell id="B_iQfIN86OkQtGYe0Bar-56" value="" style="endArrow=none;html=1;rounded=0;entryX=0;entryY=0.5;entryDx=0;entryDy=0;exitX=0.75;exitY=1;exitDx=0;exitDy=0;" parent="1" source="B_iQfIN86OkQtGYe0Bar-8" target="B_iQfIN86OkQtGYe0Bar-39" edge="1">
          <mxGeometry width="50" height="50" relative="1" as="geometry">
            <mxPoint x="-250" y="430" as="sourcePoint" />
            <mxPoint x="-155" y="435" as="targetPoint" />
            <Array as="points">
              <mxPoint x="-285" y="485" />
            </Array>
          </mxGeometry>
        </mxCell>
        <mxCell id="B_iQfIN86OkQtGYe0Bar-57" value="(1,1)" style="text;html=1;align=center;verticalAlign=middle;resizable=0;points=[];autosize=1;strokeColor=none;fillColor=none;" parent="1" vertex="1">
          <mxGeometry x="-290" y="360" width="50" height="30" as="geometry" />
        </mxCell>
        <mxCell id="B_iQfIN86OkQtGYe0Bar-58" value="(0,N)" style="text;html=1;align=center;verticalAlign=middle;resizable=0;points=[];autosize=1;strokeColor=none;fillColor=none;" parent="1" vertex="1">
          <mxGeometry x="215" y="460" width="50" height="30" as="geometry" />
        </mxCell>
        <mxCell id="B_iQfIN86OkQtGYe0Bar-59" value="Contiene" style="rhombus;whiteSpace=wrap;html=1;" parent="1" vertex="1">
          <mxGeometry x="277" y="665" width="80" height="80" as="geometry" />
        </mxCell>
        <mxCell id="B_iQfIN86OkQtGYe0Bar-60" value="" style="endArrow=none;html=1;rounded=0;entryX=0;entryY=0.5;entryDx=0;entryDy=0;exitX=1;exitY=0.5;exitDx=0;exitDy=0;" parent="1" source="B_iQfIN86OkQtGYe0Bar-26" target="B_iQfIN86OkQtGYe0Bar-59" edge="1">
          <mxGeometry width="50" height="50" relative="1" as="geometry">
            <mxPoint x="-205" y="745" as="sourcePoint" />
            <mxPoint x="-155" y="695" as="targetPoint" />
          </mxGeometry>
        </mxCell>
        <mxCell id="B_iQfIN86OkQtGYe0Bar-61" value="" style="endArrow=none;html=1;rounded=0;entryX=0.5;entryY=1;entryDx=0;entryDy=0;exitX=0.5;exitY=0;exitDx=0;exitDy=0;" parent="1" source="B_iQfIN86OkQtGYe0Bar-59" target="B_iQfIN86OkQtGYe0Bar-1" edge="1">
          <mxGeometry width="50" height="50" relative="1" as="geometry">
            <mxPoint x="-30" y="700" as="sourcePoint" />
            <mxPoint x="45" y="595" as="targetPoint" />
          </mxGeometry>
        </mxCell>
        <mxCell id="B_iQfIN86OkQtGYe0Bar-62" value="(1,N)" style="text;html=1;align=center;verticalAlign=middle;resizable=0;points=[];autosize=1;strokeColor=none;fillColor=none;" parent="1" vertex="1">
          <mxGeometry x="-260" y="680" width="50" height="30" as="geometry" />
        </mxCell>
        <mxCell id="B_iQfIN86OkQtGYe0Bar-63" value="(0,1)" style="text;html=1;align=center;verticalAlign=middle;resizable=0;points=[];autosize=1;strokeColor=none;fillColor=none;" parent="1" vertex="1">
          <mxGeometry x="307" y="510" width="50" height="30" as="geometry" />
        </mxCell>
        <mxCell id="B_iQfIN86OkQtGYe0Bar-70" value="" style="endArrow=none;html=1;rounded=0;entryX=-0.005;entryY=0.075;entryDx=0;entryDy=0;entryPerimeter=0;exitX=1;exitY=0.5;exitDx=0;exitDy=0;" parent="1" edge="1" target="B_iQfIN86OkQtGYe0Bar-8" source="B_iQfIN86OkQtGYe0Bar-71">
          <mxGeometry width="50" height="50" relative="1" as="geometry">
            <mxPoint x="-395" y="314.86" as="sourcePoint" />
            <mxPoint x="-375" y="314.86" as="targetPoint" />
          </mxGeometry>
        </mxCell>
        <mxCell id="B_iQfIN86OkQtGYe0Bar-71" value="" style="ellipse;whiteSpace=wrap;html=1;aspect=fixed;fillColor=#000000;" parent="1" vertex="1">
          <mxGeometry x="-405" y="305" width="10" height="10" as="geometry" />
        </mxCell>
        <mxCell id="B_iQfIN86OkQtGYe0Bar-72" value="CF" style="text;html=1;align=center;verticalAlign=middle;resizable=0;points=[];autosize=1;strokeColor=none;fillColor=none;" parent="1" vertex="1">
          <mxGeometry x="-440" y="295" width="40" height="30" as="geometry" />
        </mxCell>
        <mxCell id="B_iQfIN86OkQtGYe0Bar-74" value="" style="endArrow=none;html=1;rounded=0;entryX=0;entryY=0.5;entryDx=0;entryDy=0;exitX=1;exitY=0.5;exitDx=0;exitDy=0;" parent="1" edge="1" target="B_iQfIN86OkQtGYe0Bar-8" source="B_iQfIN86OkQtGYe0Bar-75">
          <mxGeometry width="50" height="50" relative="1" as="geometry">
            <mxPoint x="-395" y="345" as="sourcePoint" />
            <mxPoint x="-375" y="345" as="targetPoint" />
          </mxGeometry>
        </mxCell>
        <mxCell id="B_iQfIN86OkQtGYe0Bar-75" value="" style="ellipse;whiteSpace=wrap;html=1;aspect=fixed;" parent="1" vertex="1">
          <mxGeometry x="-405" y="330" width="10" height="10" as="geometry" />
        </mxCell>
        <mxCell id="B_iQfIN86OkQtGYe0Bar-77" value="" style="ellipse;whiteSpace=wrap;html=1;aspect=fixed;fillColor=#000000;" parent="1" vertex="1">
          <mxGeometry x="-415" y="690" width="10" height="10" as="geometry" />
        </mxCell>
        <mxCell id="B_iQfIN86OkQtGYe0Bar-78" value="" style="ellipse;whiteSpace=wrap;html=1;aspect=fixed;" parent="1" vertex="1">
          <mxGeometry x="-415" y="715" width="10" height="10" as="geometry" />
        </mxCell>
        <mxCell id="B_iQfIN86OkQtGYe0Bar-79" value="" style="endArrow=none;html=1;rounded=0;entryX=0.001;entryY=0.32;entryDx=0;entryDy=0;entryPerimeter=0;" parent="1" target="B_iQfIN86OkQtGYe0Bar-26" edge="1">
          <mxGeometry width="50" height="50" relative="1" as="geometry">
            <mxPoint x="-405" y="694" as="sourcePoint" />
            <mxPoint x="-365" y="685" as="targetPoint" />
          </mxGeometry>
        </mxCell>
        <mxCell id="B_iQfIN86OkQtGYe0Bar-81" value="" style="endArrow=none;html=1;rounded=0;entryX=0.001;entryY=0.32;entryDx=0;entryDy=0;entryPerimeter=0;" parent="1" edge="1">
          <mxGeometry width="50" height="50" relative="1" as="geometry">
            <mxPoint x="-405" y="719.87" as="sourcePoint" />
            <mxPoint x="-375" y="719.87" as="targetPoint" />
          </mxGeometry>
        </mxCell>
        <mxCell id="B_iQfIN86OkQtGYe0Bar-82" value="CodicePrena" style="text;html=1;align=center;verticalAlign=middle;resizable=0;points=[];autosize=1;strokeColor=none;fillColor=none;" parent="1" vertex="1">
          <mxGeometry x="-460" y="665" width="90" height="30" as="geometry" />
        </mxCell>
        <mxCell id="B_iQfIN86OkQtGYe0Bar-84" value="" style="endArrow=none;html=1;rounded=0;" parent="1" edge="1">
          <mxGeometry width="50" height="50" relative="1" as="geometry">
            <mxPoint x="39.80000000000001" y="305" as="sourcePoint" />
            <mxPoint x="39.80000000000001" y="275" as="targetPoint" />
          </mxGeometry>
        </mxCell>
        <mxCell id="B_iQfIN86OkQtGYe0Bar-85" value="" style="ellipse;whiteSpace=wrap;html=1;aspect=fixed;fillColor=#000000;" parent="1" vertex="1">
          <mxGeometry x="35" y="265" width="10" height="10" as="geometry" />
        </mxCell>
        <mxCell id="B_iQfIN86OkQtGYe0Bar-86" value="IDcomfort" style="text;html=1;align=center;verticalAlign=middle;resizable=0;points=[];autosize=1;strokeColor=none;fillColor=none;" parent="1" vertex="1">
          <mxGeometry x="-5" y="240" width="80" height="30" as="geometry" />
        </mxCell>
        <mxCell id="B_iQfIN86OkQtGYe0Bar-87" value="" style="endArrow=none;html=1;rounded=0;" parent="1" edge="1">
          <mxGeometry width="50" height="50" relative="1" as="geometry">
            <mxPoint x="119.80000000000001" y="305" as="sourcePoint" />
            <mxPoint x="119.80000000000001" y="275" as="targetPoint" />
          </mxGeometry>
        </mxCell>
        <mxCell id="B_iQfIN86OkQtGYe0Bar-88" value="" style="ellipse;whiteSpace=wrap;html=1;aspect=fixed;fillColor=#ffffff;" parent="1" vertex="1">
          <mxGeometry x="115" y="265" width="10" height="10" as="geometry" />
        </mxCell>
        <mxCell id="B_iQfIN86OkQtGYe0Bar-89" value="Tipo" style="text;html=1;align=center;verticalAlign=middle;resizable=0;points=[];autosize=1;strokeColor=none;fillColor=none;" parent="1" vertex="1">
          <mxGeometry x="95" y="235" width="50" height="30" as="geometry" />
        </mxCell>
        <mxCell id="B_iQfIN86OkQtGYe0Bar-90" value="" style="endArrow=none;html=1;rounded=0;" parent="1" edge="1">
          <mxGeometry width="50" height="50" relative="1" as="geometry">
            <mxPoint x="281.8" y="455" as="sourcePoint" />
            <mxPoint x="281.8" y="425" as="targetPoint" />
          </mxGeometry>
        </mxCell>
        <mxCell id="B_iQfIN86OkQtGYe0Bar-91" value="" style="ellipse;whiteSpace=wrap;html=1;aspect=fixed;fillColor=#000000;" parent="1" vertex="1">
          <mxGeometry x="277" y="415" width="10" height="10" as="geometry" />
        </mxCell>
        <mxCell id="B_iQfIN86OkQtGYe0Bar-92" value="" style="endArrow=none;html=1;rounded=0;" parent="1" edge="1">
          <mxGeometry width="50" height="50" relative="1" as="geometry">
            <mxPoint x="361.8" y="455" as="sourcePoint" />
            <mxPoint x="361.8" y="425" as="targetPoint" />
          </mxGeometry>
        </mxCell>
        <mxCell id="B_iQfIN86OkQtGYe0Bar-93" value="" style="ellipse;whiteSpace=wrap;html=1;aspect=fixed;fillColor=#ffffff;" parent="1" vertex="1">
          <mxGeometry x="357" y="415" width="10" height="10" as="geometry" />
        </mxCell>
        <mxCell id="B_iQfIN86OkQtGYe0Bar-94" value="IDcamera" style="text;html=1;align=center;verticalAlign=middle;resizable=0;points=[];autosize=1;strokeColor=none;fillColor=none;" parent="1" vertex="1">
          <mxGeometry x="225" y="390" width="80" height="30" as="geometry" />
        </mxCell>
        <mxCell id="B_iQfIN86OkQtGYe0Bar-97" value="" style="ellipse;whiteSpace=wrap;html=1;aspect=fixed;fillColor=#000000;" parent="1" vertex="1">
          <mxGeometry x="825" y="425" width="10" height="10" as="geometry" />
        </mxCell>
        <mxCell id="B_iQfIN86OkQtGYe0Bar-98" value="IDdipendente" style="text;html=1;align=center;verticalAlign=middle;resizable=0;points=[];autosize=1;strokeColor=none;fillColor=none;" parent="1" vertex="1">
          <mxGeometry x="787" y="395" width="90" height="30" as="geometry" />
        </mxCell>
        <mxCell id="B_iQfIN86OkQtGYe0Bar-99" value="" style="endArrow=none;html=1;rounded=0;exitX=1;exitY=0.5;exitDx=0;exitDy=0;entryX=0;entryY=0.75;entryDx=0;entryDy=0;" parent="1" edge="1" target="B_iQfIN86OkQtGYe0Bar-9" source="B_iQfIN86OkQtGYe0Bar-100">
          <mxGeometry width="50" height="50" relative="1" as="geometry">
            <mxPoint x="895" y="460" as="sourcePoint" />
            <mxPoint x="765" y="455" as="targetPoint" />
          </mxGeometry>
        </mxCell>
        <mxCell id="B_iQfIN86OkQtGYe0Bar-100" value="" style="ellipse;whiteSpace=wrap;html=1;aspect=fixed;" parent="1" vertex="1">
          <mxGeometry x="685" y="495" width="10" height="10" as="geometry" />
        </mxCell>
        <mxCell id="B_iQfIN86OkQtGYe0Bar-106" value="" style="endArrow=none;html=1;rounded=0;entryX=0.5;entryY=1;entryDx=0;entryDy=0;exitX=0.901;exitY=0.002;exitDx=0;exitDy=0;exitPerimeter=0;" parent="1" source="B_iQfIN86OkQtGYe0Bar-9" target="B_iQfIN86OkQtGYe0Bar-97" edge="1">
          <mxGeometry width="50" height="50" relative="1" as="geometry">
            <mxPoint x="775" y="485" as="sourcePoint" />
            <mxPoint x="825" y="435" as="targetPoint" />
          </mxGeometry>
        </mxCell>
        <mxCell id="B_iQfIN86OkQtGYe0Bar-107" value="" style="ellipse;whiteSpace=wrap;html=1;aspect=fixed;fillColor=#FFFFFF;" parent="1" vertex="1">
          <mxGeometry x="725" y="425" width="10" height="10" as="geometry" />
        </mxCell>
        <mxCell id="B_iQfIN86OkQtGYe0Bar-109" value="" style="ellipse;whiteSpace=wrap;html=1;aspect=fixed;fillColor=#FFFFFF;" parent="1" vertex="1">
          <mxGeometry x="735" y="626" width="10" height="10" as="geometry" />
        </mxCell>
        <mxCell id="B_iQfIN86OkQtGYe0Bar-110" value="" style="endArrow=none;html=1;rounded=0;entryX=0.5;entryY=1;entryDx=0;entryDy=0;exitX=0.903;exitY=-0.014;exitDx=0;exitDy=0;exitPerimeter=0;" parent="1" target="B_iQfIN86OkQtGYe0Bar-109" edge="1">
          <mxGeometry width="50" height="50" relative="1" as="geometry">
            <mxPoint x="740" y="655" as="sourcePoint" />
            <mxPoint x="735" y="636" as="targetPoint" />
          </mxGeometry>
        </mxCell>
        <mxCell id="B_iQfIN86OkQtGYe0Bar-111" value="Ruolo" style="text;html=1;strokeColor=none;fillColor=none;align=center;verticalAlign=middle;whiteSpace=wrap;rounded=0;" parent="1" vertex="1">
          <mxGeometry x="710" y="606" width="60" height="30" as="geometry" />
        </mxCell>
        <mxCell id="Q9l4ipbVR6uwvOI7dF07-4" value="" style="ellipse;whiteSpace=wrap;html=1;aspect=fixed;" vertex="1" parent="1">
          <mxGeometry x="-315" y="275" width="10" height="10" as="geometry" />
        </mxCell>
        <mxCell id="Q9l4ipbVR6uwvOI7dF07-6" value="" style="ellipse;whiteSpace=wrap;html=1;aspect=fixed;" vertex="1" parent="1">
          <mxGeometry x="-405" y="355" width="10" height="10" as="geometry" />
        </mxCell>
        <mxCell id="Q9l4ipbVR6uwvOI7dF07-8" value="" style="ellipse;whiteSpace=wrap;html=1;aspect=fixed;" vertex="1" parent="1">
          <mxGeometry x="-370" y="275" width="10" height="10" as="geometry" />
        </mxCell>
        <mxCell id="Q9l4ipbVR6uwvOI7dF07-9" value="" style="endArrow=none;html=1;rounded=0;entryX=0.091;entryY=1;entryDx=0;entryDy=0;entryPerimeter=0;exitX=0.5;exitY=0;exitDx=0;exitDy=0;" edge="1" parent="1" source="Q9l4ipbVR6uwvOI7dF07-10" target="B_iQfIN86OkQtGYe0Bar-8">
          <mxGeometry width="50" height="50" relative="1" as="geometry">
            <mxPoint x="-430" y="465" as="sourcePoint" />
            <mxPoint x="-410" y="465" as="targetPoint" />
          </mxGeometry>
        </mxCell>
        <mxCell id="Q9l4ipbVR6uwvOI7dF07-10" value="" style="ellipse;whiteSpace=wrap;html=1;aspect=fixed;" vertex="1" parent="1">
          <mxGeometry x="-370" y="380" width="10" height="10" as="geometry" />
        </mxCell>
        <mxCell id="Q9l4ipbVR6uwvOI7dF07-11" value="" style="endArrow=none;html=1;rounded=0;entryX=0.961;entryY=-0.003;entryDx=0;entryDy=0;entryPerimeter=0;exitX=0.5;exitY=1;exitDx=0;exitDy=0;" edge="1" parent="1" source="Q9l4ipbVR6uwvOI7dF07-12" target="B_iQfIN86OkQtGYe0Bar-8">
          <mxGeometry width="50" height="50" relative="1" as="geometry">
            <mxPoint x="-264" y="290" as="sourcePoint" />
            <mxPoint x="-460" y="475" as="targetPoint" />
          </mxGeometry>
        </mxCell>
        <mxCell id="Q9l4ipbVR6uwvOI7dF07-12" value="" style="ellipse;whiteSpace=wrap;html=1;aspect=fixed;" vertex="1" parent="1">
          <mxGeometry x="-265" y="275" width="10" height="10" as="geometry" />
        </mxCell>
        <mxCell id="Q9l4ipbVR6uwvOI7dF07-13" value="Nome" style="text;html=1;align=center;verticalAlign=middle;resizable=0;points=[];autosize=1;strokeColor=none;fillColor=none;" vertex="1" parent="1">
          <mxGeometry x="-455" y="320" width="60" height="30" as="geometry" />
        </mxCell>
        <mxCell id="Q9l4ipbVR6uwvOI7dF07-15" value="" style="endArrow=none;html=1;rounded=0;exitX=0.992;exitY=0.488;exitDx=0;exitDy=0;entryX=-0.001;entryY=0.895;entryDx=0;entryDy=0;entryPerimeter=0;exitPerimeter=0;" edge="1" parent="1" source="Q9l4ipbVR6uwvOI7dF07-16" target="B_iQfIN86OkQtGYe0Bar-8">
          <mxGeometry width="50" height="50" relative="1" as="geometry">
            <mxPoint x="-400" y="410" as="sourcePoint" />
            <mxPoint x="-350" y="360" as="targetPoint" />
          </mxGeometry>
        </mxCell>
        <mxCell id="Q9l4ipbVR6uwvOI7dF07-16" value="Cognome" style="text;html=1;align=center;verticalAlign=middle;resizable=0;points=[];autosize=1;strokeColor=none;fillColor=none;" vertex="1" parent="1">
          <mxGeometry x="-475" y="345" width="80" height="30" as="geometry" />
        </mxCell>
        <mxCell id="Q9l4ipbVR6uwvOI7dF07-19" value="" style="endArrow=none;html=1;rounded=0;entryX=0.5;entryY=1;entryDx=0;entryDy=0;exitX=0.085;exitY=0.012;exitDx=0;exitDy=0;exitPerimeter=0;" edge="1" parent="1" source="B_iQfIN86OkQtGYe0Bar-8" target="Q9l4ipbVR6uwvOI7dF07-8">
          <mxGeometry width="50" height="50" relative="1" as="geometry">
            <mxPoint x="-380" y="340" as="sourcePoint" />
            <mxPoint x="-330" y="290" as="targetPoint" />
          </mxGeometry>
        </mxCell>
        <mxCell id="Q9l4ipbVR6uwvOI7dF07-21" value="Data nascita" style="text;html=1;align=center;verticalAlign=middle;resizable=0;points=[];autosize=1;strokeColor=none;fillColor=none;" vertex="1" parent="1">
          <mxGeometry x="-430" y="255" width="90" height="30" as="geometry" />
        </mxCell>
        <mxCell id="Q9l4ipbVR6uwvOI7dF07-22" value="" style="endArrow=none;html=1;rounded=0;entryX=0.5;entryY=1;entryDx=0;entryDy=0;exitX=0.54;exitY=0.005;exitDx=0;exitDy=0;exitPerimeter=0;" edge="1" parent="1" source="B_iQfIN86OkQtGYe0Bar-8" target="Q9l4ipbVR6uwvOI7dF07-4">
          <mxGeometry width="50" height="50" relative="1" as="geometry">
            <mxPoint x="-360" y="330" as="sourcePoint" />
            <mxPoint x="-310" y="280" as="targetPoint" />
          </mxGeometry>
        </mxCell>
        <mxCell id="Q9l4ipbVR6uwvOI7dF07-23" value="Username" style="text;html=1;align=center;verticalAlign=middle;resizable=0;points=[];autosize=1;strokeColor=none;fillColor=none;" vertex="1" parent="1">
          <mxGeometry x="-350" y="255" width="80" height="30" as="geometry" />
        </mxCell>
        <mxCell id="Q9l4ipbVR6uwvOI7dF07-24" value="Password" style="text;html=1;align=center;verticalAlign=middle;resizable=0;points=[];autosize=1;strokeColor=none;fillColor=none;" vertex="1" parent="1">
          <mxGeometry x="-405" y="385" width="80" height="30" as="geometry" />
        </mxCell>
        <mxCell id="Q9l4ipbVR6uwvOI7dF07-27" value="Mail" style="text;html=1;align=center;verticalAlign=middle;resizable=0;points=[];autosize=1;strokeColor=none;fillColor=none;" vertex="1" parent="1">
          <mxGeometry x="-285" y="255" width="50" height="30" as="geometry" />
        </mxCell>
        <mxCell id="Q9l4ipbVR6uwvOI7dF07-28" value="" style="endArrow=none;html=1;rounded=0;entryX=1;entryY=0.5;entryDx=0;entryDy=0;exitX=0;exitY=0.5;exitDx=0;exitDy=0;" edge="1" parent="1" source="Q9l4ipbVR6uwvOI7dF07-29" target="B_iQfIN86OkQtGYe0Bar-9">
          <mxGeometry width="50" height="50" relative="1" as="geometry">
            <mxPoint x="945" y="510" as="sourcePoint" />
            <mxPoint x="965" y="510" as="targetPoint" />
          </mxGeometry>
        </mxCell>
        <mxCell id="Q9l4ipbVR6uwvOI7dF07-29" value="" style="ellipse;whiteSpace=wrap;html=1;aspect=fixed;" vertex="1" parent="1">
          <mxGeometry x="875" y="480" width="10" height="10" as="geometry" />
        </mxCell>
        <mxCell id="Q9l4ipbVR6uwvOI7dF07-30" value="" style="endArrow=none;html=1;rounded=0;entryX=0.21;entryY=0.991;entryDx=0;entryDy=0;exitX=0.5;exitY=0;exitDx=0;exitDy=0;entryPerimeter=0;" edge="1" parent="1" source="Q9l4ipbVR6uwvOI7dF07-31" target="B_iQfIN86OkQtGYe0Bar-26">
          <mxGeometry width="50" height="50" relative="1" as="geometry">
            <mxPoint x="-340" y="775" as="sourcePoint" />
            <mxPoint x="-320" y="775" as="targetPoint" />
          </mxGeometry>
        </mxCell>
        <mxCell id="Q9l4ipbVR6uwvOI7dF07-31" value="" style="ellipse;whiteSpace=wrap;html=1;aspect=fixed;" vertex="1" parent="1">
          <mxGeometry x="-355" y="760" width="10" height="10" as="geometry" />
        </mxCell>
        <mxCell id="Q9l4ipbVR6uwvOI7dF07-32" value="" style="endArrow=none;html=1;rounded=0;entryX=0.874;entryY=1.012;entryDx=0;entryDy=0;exitX=0.5;exitY=0;exitDx=0;exitDy=0;entryPerimeter=0;" edge="1" parent="1" source="Q9l4ipbVR6uwvOI7dF07-33" target="B_iQfIN86OkQtGYe0Bar-26">
          <mxGeometry width="50" height="50" relative="1" as="geometry">
            <mxPoint x="-320" y="815" as="sourcePoint" />
            <mxPoint x="-300" y="815" as="targetPoint" />
          </mxGeometry>
        </mxCell>
        <mxCell id="Q9l4ipbVR6uwvOI7dF07-33" value="" style="ellipse;whiteSpace=wrap;html=1;aspect=fixed;" vertex="1" parent="1">
          <mxGeometry x="-275" y="760" width="10" height="10" as="geometry" />
        </mxCell>
        <mxCell id="Q9l4ipbVR6uwvOI7dF07-34" value="" style="endArrow=none;html=1;rounded=0;entryX=1;entryY=0.75;entryDx=0;entryDy=0;exitX=0;exitY=0.5;exitDx=0;exitDy=0;" edge="1" parent="1" source="Q9l4ipbVR6uwvOI7dF07-35" target="B_iQfIN86OkQtGYe0Bar-26">
          <mxGeometry width="50" height="50" relative="1" as="geometry">
            <mxPoint x="-350" y="835" as="sourcePoint" />
            <mxPoint x="-330" y="835" as="targetPoint" />
          </mxGeometry>
        </mxCell>
        <mxCell id="Q9l4ipbVR6uwvOI7dF07-35" value="" style="ellipse;whiteSpace=wrap;html=1;aspect=fixed;" vertex="1" parent="1">
          <mxGeometry x="-230" y="715" width="10" height="10" as="geometry" />
        </mxCell>
        <mxCell id="Q9l4ipbVR6uwvOI7dF07-36" value="" style="endArrow=none;html=1;rounded=0;entryX=0.542;entryY=1.003;entryDx=0;entryDy=0;exitX=0.5;exitY=0;exitDx=0;exitDy=0;entryPerimeter=0;" edge="1" parent="1" source="Q9l4ipbVR6uwvOI7dF07-37" target="B_iQfIN86OkQtGYe0Bar-26">
          <mxGeometry width="50" height="50" relative="1" as="geometry">
            <mxPoint x="-250" y="795" as="sourcePoint" />
            <mxPoint x="-230" y="795" as="targetPoint" />
          </mxGeometry>
        </mxCell>
        <mxCell id="Q9l4ipbVR6uwvOI7dF07-37" value="" style="ellipse;whiteSpace=wrap;html=1;aspect=fixed;" vertex="1" parent="1">
          <mxGeometry x="-315" y="760" width="10" height="10" as="geometry" />
        </mxCell>
        <mxCell id="Q9l4ipbVR6uwvOI7dF07-39" value="Data" style="text;html=1;align=center;verticalAlign=middle;resizable=0;points=[];autosize=1;strokeColor=none;fillColor=none;" vertex="1" parent="1">
          <mxGeometry x="-375" y="760" width="50" height="30" as="geometry" />
        </mxCell>
        <mxCell id="Q9l4ipbVR6uwvOI7dF07-40" value="Ora" style="text;html=1;align=center;verticalAlign=middle;resizable=0;points=[];autosize=1;strokeColor=none;fillColor=none;" vertex="1" parent="1">
          <mxGeometry x="-330" y="760" width="40" height="30" as="geometry" />
        </mxCell>
        <mxCell id="Q9l4ipbVR6uwvOI7dF07-42" value="Durata" style="text;html=1;align=center;verticalAlign=middle;resizable=0;points=[];autosize=1;strokeColor=none;fillColor=none;" vertex="1" parent="1">
          <mxGeometry x="-300" y="760" width="60" height="30" as="geometry" />
        </mxCell>
        <mxCell id="Q9l4ipbVR6uwvOI7dF07-43" value="IDCamera" style="text;html=1;align=center;verticalAlign=middle;resizable=0;points=[];autosize=1;strokeColor=none;fillColor=none;" vertex="1" parent="1">
          <mxGeometry x="-260" y="715" width="80" height="30" as="geometry" />
        </mxCell>
        <mxCell id="Q9l4ipbVR6uwvOI7dF07-44" value="CF" style="text;html=1;align=center;verticalAlign=middle;resizable=0;points=[];autosize=1;strokeColor=none;fillColor=none;" vertex="1" parent="1">
          <mxGeometry x="-445" y="705" width="40" height="30" as="geometry" />
        </mxCell>
        <mxCell id="Q9l4ipbVR6uwvOI7dF07-45" value="" style="endArrow=none;html=1;rounded=0;entryX=0.5;entryY=1;entryDx=0;entryDy=0;exitX=0.5;exitY=0;exitDx=0;exitDy=0;" edge="1" parent="1" source="Q9l4ipbVR6uwvOI7dF07-46" target="B_iQfIN86OkQtGYe0Bar-27">
          <mxGeometry width="50" height="50" relative="1" as="geometry">
            <mxPoint x="90" y="405" as="sourcePoint" />
            <mxPoint x="110" y="405" as="targetPoint" />
          </mxGeometry>
        </mxCell>
        <mxCell id="Q9l4ipbVR6uwvOI7dF07-46" value="" style="ellipse;whiteSpace=wrap;html=1;aspect=fixed;" vertex="1" parent="1">
          <mxGeometry x="80" y="395" width="10" height="10" as="geometry" />
        </mxCell>
        <mxCell id="Q9l4ipbVR6uwvOI7dF07-47" value="Prezzo" style="text;html=1;align=center;verticalAlign=middle;resizable=0;points=[];autosize=1;strokeColor=none;fillColor=none;" vertex="1" parent="1">
          <mxGeometry x="55" y="395" width="60" height="30" as="geometry" />
        </mxCell>
        <mxCell id="Q9l4ipbVR6uwvOI7dF07-48" value="" style="endArrow=none;html=1;rounded=0;entryX=0.002;entryY=0.917;entryDx=0;entryDy=0;entryPerimeter=0;exitX=1;exitY=0.5;exitDx=0;exitDy=0;" edge="1" parent="1" source="Q9l4ipbVR6uwvOI7dF07-49" target="B_iQfIN86OkQtGYe0Bar-1">
          <mxGeometry width="50" height="50" relative="1" as="geometry">
            <mxPoint x="390" y="565" as="sourcePoint" />
            <mxPoint x="250" y="520" as="targetPoint" />
          </mxGeometry>
        </mxCell>
        <mxCell id="Q9l4ipbVR6uwvOI7dF07-49" value="" style="ellipse;whiteSpace=wrap;html=1;aspect=fixed;" vertex="1" parent="1">
          <mxGeometry x="215" y="505" width="10" height="10" as="geometry" />
        </mxCell>
        <mxCell id="Q9l4ipbVR6uwvOI7dF07-50" value="" style="endArrow=none;html=1;rounded=0;entryX=0;entryY=0.085;entryDx=0;entryDy=0;exitX=1;exitY=0.5;exitDx=0;exitDy=0;entryPerimeter=0;" edge="1" parent="1" source="Q9l4ipbVR6uwvOI7dF07-51" target="B_iQfIN86OkQtGYe0Bar-1">
          <mxGeometry width="50" height="50" relative="1" as="geometry">
            <mxPoint x="410" y="545" as="sourcePoint" />
            <mxPoint x="430" y="545" as="targetPoint" />
          </mxGeometry>
        </mxCell>
        <mxCell id="Q9l4ipbVR6uwvOI7dF07-51" value="" style="ellipse;whiteSpace=wrap;html=1;aspect=fixed;" vertex="1" parent="1">
          <mxGeometry x="215" y="455" width="10" height="10" as="geometry" />
        </mxCell>
        <mxCell id="Q9l4ipbVR6uwvOI7dF07-52" value="" style="endArrow=none;html=1;rounded=0;entryX=1;entryY=0.904;entryDx=0;entryDy=0;entryPerimeter=0;exitX=0;exitY=0.5;exitDx=0;exitDy=0;" edge="1" parent="1" source="Q9l4ipbVR6uwvOI7dF07-53" target="B_iQfIN86OkQtGYe0Bar-1">
          <mxGeometry width="50" height="50" relative="1" as="geometry">
            <mxPoint x="470" y="535" as="sourcePoint" />
            <mxPoint x="490" y="535" as="targetPoint" />
          </mxGeometry>
        </mxCell>
        <mxCell id="Q9l4ipbVR6uwvOI7dF07-53" value="" style="ellipse;whiteSpace=wrap;html=1;aspect=fixed;" vertex="1" parent="1">
          <mxGeometry x="409" y="505" width="10" height="10" as="geometry" />
        </mxCell>
        <mxCell id="Q9l4ipbVR6uwvOI7dF07-54" value="" style="endArrow=none;html=1;rounded=0;entryX=0.873;entryY=1.005;entryDx=0;entryDy=0;entryPerimeter=0;exitX=0.5;exitY=0;exitDx=0;exitDy=0;" edge="1" parent="1" source="Q9l4ipbVR6uwvOI7dF07-55" target="B_iQfIN86OkQtGYe0Bar-1">
          <mxGeometry width="50" height="50" relative="1" as="geometry">
            <mxPoint x="410" y="585" as="sourcePoint" />
            <mxPoint x="430" y="585" as="targetPoint" />
          </mxGeometry>
        </mxCell>
        <mxCell id="Q9l4ipbVR6uwvOI7dF07-55" value="" style="ellipse;whiteSpace=wrap;html=1;aspect=fixed;" vertex="1" parent="1">
          <mxGeometry x="357" y="540" width="10" height="10" as="geometry" />
        </mxCell>
        <mxCell id="Q9l4ipbVR6uwvOI7dF07-56" value="" style="endArrow=none;html=1;rounded=0;entryX=0.212;entryY=0.992;entryDx=0;entryDy=0;exitX=0.5;exitY=0;exitDx=0;exitDy=0;entryPerimeter=0;" edge="1" parent="1" source="Q9l4ipbVR6uwvOI7dF07-57" target="B_iQfIN86OkQtGYe0Bar-1">
          <mxGeometry width="50" height="50" relative="1" as="geometry">
            <mxPoint x="350" y="595" as="sourcePoint" />
            <mxPoint x="370" y="595" as="targetPoint" />
          </mxGeometry>
        </mxCell>
        <mxCell id="Q9l4ipbVR6uwvOI7dF07-57" value="" style="ellipse;whiteSpace=wrap;html=1;aspect=fixed;" vertex="1" parent="1">
          <mxGeometry x="277" y="540" width="10" height="10" as="geometry" />
        </mxCell>
        <mxCell id="Q9l4ipbVR6uwvOI7dF07-58" value="IDComfort" style="text;html=1;align=center;verticalAlign=middle;resizable=0;points=[];autosize=1;strokeColor=none;fillColor=none;" vertex="1" parent="1">
          <mxGeometry x="180" y="430" width="80" height="30" as="geometry" />
        </mxCell>
        <mxCell id="Q9l4ipbVR6uwvOI7dF07-59" value="IDLavoratore" style="text;html=1;align=center;verticalAlign=middle;resizable=0;points=[];autosize=1;strokeColor=none;fillColor=none;" vertex="1" parent="1">
          <mxGeometry x="175" y="480" width="90" height="30" as="geometry" />
        </mxCell>
        <mxCell id="Q9l4ipbVR6uwvOI7dF07-61" value="Nletti" style="text;html=1;align=center;verticalAlign=middle;resizable=0;points=[];autosize=1;strokeColor=none;fillColor=none;" vertex="1" parent="1">
          <mxGeometry x="255" y="545" width="50" height="30" as="geometry" />
        </mxCell>
        <mxCell id="Q9l4ipbVR6uwvOI7dF07-62" value="Npiano" style="text;html=1;align=center;verticalAlign=middle;resizable=0;points=[];autosize=1;strokeColor=none;fillColor=none;" vertex="1" parent="1">
          <mxGeometry x="332" y="545" width="60" height="30" as="geometry" />
        </mxCell>
        <mxCell id="Q9l4ipbVR6uwvOI7dF07-63" value="IDCliente" style="text;html=1;align=center;verticalAlign=middle;resizable=0;points=[];autosize=1;strokeColor=none;fillColor=none;" vertex="1" parent="1">
          <mxGeometry x="377" y="505" width="70" height="30" as="geometry" />
        </mxCell>
        <mxCell id="Q9l4ipbVR6uwvOI7dF07-64" value="Tipo" style="text;html=1;align=center;verticalAlign=middle;resizable=0;points=[];autosize=1;strokeColor=none;fillColor=none;" vertex="1" parent="1">
          <mxGeometry x="337" y="390" width="50" height="30" as="geometry" />
        </mxCell>
        <mxCell id="Q9l4ipbVR6uwvOI7dF07-65" value="(1,1)" style="text;html=1;align=center;verticalAlign=middle;resizable=0;points=[];autosize=1;strokeColor=none;fillColor=none;" vertex="1" parent="1">
          <mxGeometry x="-320" y="650" width="50" height="30" as="geometry" />
        </mxCell>
        <mxCell id="Q9l4ipbVR6uwvOI7dF07-66" value="" style="endArrow=none;html=1;rounded=0;entryX=1.003;entryY=0.914;entryDx=0;entryDy=0;entryPerimeter=0;exitX=0;exitY=0.5;exitDx=0;exitDy=0;" edge="1" parent="1" source="Q9l4ipbVR6uwvOI7dF07-67" target="B_iQfIN86OkQtGYe0Bar-9">
          <mxGeometry width="50" height="50" relative="1" as="geometry">
            <mxPoint x="1000" y="435" as="sourcePoint" />
            <mxPoint x="1020" y="435" as="targetPoint" />
          </mxGeometry>
        </mxCell>
        <mxCell id="Q9l4ipbVR6uwvOI7dF07-67" value="" style="ellipse;whiteSpace=wrap;html=1;aspect=fixed;" vertex="1" parent="1">
          <mxGeometry x="875" y="505" width="10" height="10" as="geometry" />
        </mxCell>
        <mxCell id="Q9l4ipbVR6uwvOI7dF07-68" value="" style="endArrow=none;html=1;rounded=0;entryX=0.996;entryY=0.078;entryDx=0;entryDy=0;entryPerimeter=0;exitX=0;exitY=0.5;exitDx=0;exitDy=0;" edge="1" parent="1" source="Q9l4ipbVR6uwvOI7dF07-69" target="B_iQfIN86OkQtGYe0Bar-9">
          <mxGeometry width="50" height="50" relative="1" as="geometry">
            <mxPoint x="950" y="375" as="sourcePoint" />
            <mxPoint x="970" y="375" as="targetPoint" />
          </mxGeometry>
        </mxCell>
        <mxCell id="Q9l4ipbVR6uwvOI7dF07-69" value="" style="ellipse;whiteSpace=wrap;html=1;aspect=fixed;" vertex="1" parent="1">
          <mxGeometry x="875" y="455" width="10" height="10" as="geometry" />
        </mxCell>
        <mxCell id="Q9l4ipbVR6uwvOI7dF07-72" value="" style="endArrow=none;html=1;rounded=0;entryX=0.151;entryY=0.993;entryDx=0;entryDy=0;entryPerimeter=0;exitX=0.5;exitY=0;exitDx=0;exitDy=0;" edge="1" parent="1" source="Q9l4ipbVR6uwvOI7dF07-73" target="B_iQfIN86OkQtGYe0Bar-9">
          <mxGeometry width="50" height="50" relative="1" as="geometry">
            <mxPoint x="1060" y="535" as="sourcePoint" />
            <mxPoint x="1080" y="535" as="targetPoint" />
          </mxGeometry>
        </mxCell>
        <mxCell id="Q9l4ipbVR6uwvOI7dF07-73" value="" style="ellipse;whiteSpace=wrap;html=1;aspect=fixed;" vertex="1" parent="1">
          <mxGeometry x="735" y="535" width="10" height="10" as="geometry" />
        </mxCell>
        <mxCell id="Q9l4ipbVR6uwvOI7dF07-75" value="" style="ellipse;whiteSpace=wrap;html=1;aspect=fixed;" vertex="1" parent="1">
          <mxGeometry x="827" y="535" width="10" height="10" as="geometry" />
        </mxCell>
        <mxCell id="Q9l4ipbVR6uwvOI7dF07-76" value="" style="endArrow=none;html=1;rounded=0;exitX=0.068;exitY=0.005;exitDx=0;exitDy=0;exitPerimeter=0;entryX=0.5;entryY=1;entryDx=0;entryDy=0;" edge="1" parent="1" source="B_iQfIN86OkQtGYe0Bar-9" target="B_iQfIN86OkQtGYe0Bar-107">
          <mxGeometry width="50" height="50" relative="1" as="geometry">
            <mxPoint x="770" y="450" as="sourcePoint" />
            <mxPoint x="790" y="450" as="targetPoint" />
          </mxGeometry>
        </mxCell>
        <mxCell id="Q9l4ipbVR6uwvOI7dF07-77" value="" style="endArrow=none;html=1;rounded=0;exitX=0.5;exitY=0;exitDx=0;exitDy=0;entryX=0.917;entryY=1.002;entryDx=0;entryDy=0;entryPerimeter=0;" edge="1" parent="1" source="Q9l4ipbVR6uwvOI7dF07-75" target="B_iQfIN86OkQtGYe0Bar-9">
          <mxGeometry width="50" height="50" relative="1" as="geometry">
            <mxPoint x="860" y="570" as="sourcePoint" />
            <mxPoint x="910" y="520" as="targetPoint" />
          </mxGeometry>
        </mxCell>
        <mxCell id="Q9l4ipbVR6uwvOI7dF07-79" value="CF" style="text;html=1;align=center;verticalAlign=middle;resizable=0;points=[];autosize=1;strokeColor=none;fillColor=none;" vertex="1" parent="1">
          <mxGeometry x="880" y="445" width="40" height="30" as="geometry" />
        </mxCell>
        <mxCell id="Q9l4ipbVR6uwvOI7dF07-80" value="Stipendio" style="text;html=1;align=center;verticalAlign=middle;resizable=0;points=[];autosize=1;strokeColor=none;fillColor=none;" vertex="1" parent="1">
          <mxGeometry x="880" y="470" width="70" height="30" as="geometry" />
        </mxCell>
        <mxCell id="Q9l4ipbVR6uwvOI7dF07-81" value="Mail" style="text;html=1;align=center;verticalAlign=middle;resizable=0;points=[];autosize=1;strokeColor=none;fillColor=none;" vertex="1" parent="1">
          <mxGeometry x="875" y="495" width="50" height="30" as="geometry" />
        </mxCell>
        <mxCell id="Q9l4ipbVR6uwvOI7dF07-82" value="Password" style="text;html=1;align=center;verticalAlign=middle;resizable=0;points=[];autosize=1;strokeColor=none;fillColor=none;" vertex="1" parent="1">
          <mxGeometry x="800" y="535" width="80" height="30" as="geometry" />
        </mxCell>
        <mxCell id="Q9l4ipbVR6uwvOI7dF07-83" value="Username" style="text;html=1;align=center;verticalAlign=middle;resizable=0;points=[];autosize=1;strokeColor=none;fillColor=none;" vertex="1" parent="1">
          <mxGeometry x="690" y="535" width="80" height="30" as="geometry" />
        </mxCell>
        <mxCell id="Q9l4ipbVR6uwvOI7dF07-84" value="Data Nascita" style="text;html=1;align=center;verticalAlign=middle;resizable=0;points=[];autosize=1;strokeColor=none;fillColor=none;" vertex="1" parent="1">
          <mxGeometry x="685" y="400" width="90" height="30" as="geometry" />
        </mxCell>
        <mxCell id="Q9l4ipbVR6uwvOI7dF07-85" value="Cognome" style="text;html=1;align=center;verticalAlign=middle;resizable=0;points=[];autosize=1;strokeColor=none;fillColor=none;" vertex="1" parent="1">
          <mxGeometry x="645" y="500" width="80" height="30" as="geometry" />
        </mxCell>
        <mxCell id="Q9l4ipbVR6uwvOI7dF07-87" value="" style="endArrow=none;html=1;rounded=0;entryX=0.944;entryY=-0.035;entryDx=0;entryDy=0;exitX=0.3;exitY=-0.022;exitDx=0;exitDy=0;exitPerimeter=0;entryPerimeter=0;" edge="1" parent="1" source="B_iQfIN86OkQtGYe0Bar-37" target="B_iQfIN86OkQtGYe0Bar-37">
          <mxGeometry width="50" height="50" relative="1" as="geometry">
            <mxPoint x="782" y="440" as="sourcePoint" />
            <mxPoint x="840" y="480" as="targetPoint" />
          </mxGeometry>
        </mxCell>
        <mxCell id="Q9l4ipbVR6uwvOI7dF07-88" value="" style="ellipse;whiteSpace=wrap;html=1;aspect=fixed;" vertex="1" parent="1">
          <mxGeometry x="680" y="455" width="10" height="10" as="geometry" />
        </mxCell>
        <mxCell id="Q9l4ipbVR6uwvOI7dF07-89" value="Nome" style="text;html=1;align=center;verticalAlign=middle;resizable=0;points=[];autosize=1;strokeColor=none;fillColor=none;" vertex="1" parent="1">
          <mxGeometry x="655" y="430" width="60" height="30" as="geometry" />
        </mxCell>
      </root>
    </mxGraphModel>
  </diagram>
</mxfile>
